<?xml version="1.0" standalone="no"?>
<!DOCTYPE svg PUBLIC "-//W3C//DTD SVG 20010904//EN"
 "http://www.w3.org/TR/2001/REC-SVG-20010904/DTD/svg10.dtd">
<svg version="1.0" xmlns="http://www.w3.org/2000/svg"
 width="512.000000pt" height="512.000000pt" viewBox="0 0 512.000000 512.000000"
 preserveAspectRatio="xMidYMid meet">

<g transform="translate(0.000000,512.000000) scale(0.100000,-0.100000)"
fill="#000000" stroke="none">
<path d="M766 5099 l-26 -20 0 -1280 0 -1279 -271 0 c-185 0 -285 -4 -313 -12
-54 -16 -128 -90 -144 -144 -17 -59 -17 -1479 0 -1538 18 -59 91 -129 150
-144 30 -8 142 -12 312 -12 l266 0 0 -314 0 -315 26 -20 27 -21 1767 0 1767 0
27 21 c26 20 26 22 26 149 l0 129 288 3 c272 3 289 4 327 25 46 24 75 54 101
103 18 33 19 74 22 715 2 493 0 695 -8 734 -10 43 -22 63 -59 100 -28 28 -62
51 -87 59 -28 8 -128 12 -313 12 l-271 0 0 1514 0 1515 -26 20 -27 21 -1767 0
-1767 0 -27 -21z m3474 -304 l0 -175 -1680 0 -1680 0 0 175 0 175 1680 0 1680
0 0 -175z m-1547 -740 c220 -46 415 -234 472 -453 30 -117 19 -283 -26 -391
l-15 -34 -64 57 c-37 32 -105 77 -157 103 l-92 46 32 56 c30 53 32 62 32 156
0 92 -2 104 -30 154 -33 60 -86 109 -154 143 -66 32 -196 32 -262 0 -68 -34
-121 -83 -154 -143 -27 -49 -30 -62 -30 -150 0 -88 3 -101 32 -158 l32 -61
-64 -29 c-78 -36 -147 -81 -202 -134 -24 -23 -45 -38 -48 -35 -3 3 -15 32 -27
64 -26 74 -36 250 -18 333 6 31 30 94 52 141 33 69 56 100 122 165 157 156
356 215 569 170z m-56 -306 c57 -27 93 -87 93 -154 0 -67 -36 -127 -93 -154
-56 -27 -103 -27 -158 2 -120 64 -118 246 3 306 54 27 100 27 155 0z m-462
-1404 l25 -24 0 -726 0 -726 -25 -24 -24 -25 -976 0 -976 0 -24 25 -25 24 0
726 0 726 25 24 24 25 976 0 976 0 24 -25z"/>
<path d="M3462 4850 c-22 -21 -30 -73 -14 -96 15 -23 53 -34 115 -34 81 0 117
23 117 75 0 57 -29 75 -120 75 -63 0 -80 -4 -98 -20z"/>
<path d="M3862 4850 c-22 -21 -30 -73 -14 -96 15 -23 53 -34 115 -34 81 0 117
23 117 75 0 57 -29 75 -120 75 -63 0 -80 -4 -98 -20z"/>
<path d="M444 2197 c-96 -46 -154 -146 -141 -242 17 -122 122 -215 243 -215
115 0 234 119 234 234 0 172 -185 295 -336 223z m157 -156 c20 -20 29 -39 29
-61 0 -43 -47 -90 -90 -90 -43 0 -90 47 -90 90 0 43 47 90 90 90 22 0 41 -9
61 -29z"/>
<path d="M1392 1762 c-9 -9 -68 -90 -130 -180 -63 -89 -115 -162 -116 -162 -2
0 -42 45 -90 100 -101 116 -125 135 -161 126 -27 -7 -508 -547 -519 -584 -8
-25 16 -77 39 -86 9 -3 353 -6 763 -6 597 1 750 3 764 14 24 18 37 57 27 83
-13 36 -469 682 -493 698 -28 20 -62 19 -84 -3z m206 -413 c85 -122 152 -223
149 -225 -2 -2 -257 -3 -566 -2 l-561 3 139 160 c77 88 144 161 149 163 5 1
53 -47 106 -107 147 -167 145 -168 303 59 65 93 120 170 123 169 3 0 74 -99
158 -220z"/>
</g>
</svg>
